<svg xmlns="http://www.w3.org/2000/svg">
    <defs>
        <!-- home -->
        <symbol viewBox="0 0 26 27" id="home">
            <path
                fill="white"
                stroke="currentColor"
                stroke-width="2px"
                stroke-linejoin="round"
                border="#ed6a01"
                d="M25 12.604V23.699C25 24.2082 24.7893 24.6966 24.4142 25.0567C24.0391 25.4168 23.5304 25.6191 23 25.6191H18C17.4695 25.6191 16.9608 25.4168 16.5858 25.0567C16.2107 24.6966 16 24.2082 16 23.699V18.8986C16 18.6439 15.8946 18.3997 15.7071 18.2197C15.5196 18.0396 15.2652 17.9385 15 17.9385H11C10.7348 17.9385 10.4804 18.0396 10.2929 18.2197C10.1053 18.3997 9.99999 18.6439 9.99999 18.8986V23.699C9.99999 24.2082 9.78928 24.6966 9.4142 25.0567C9.03913 25.4168 8.53042 25.6191 7.99999 25.6191H3C2.46957 25.6191 1.96086 25.4168 1.58579 25.0567C1.21071 24.6966 1 24.2082 1 23.699V12.604C0.999958 12.3383 1.05737 12.0754 1.16861 11.8321C1.27985 11.5887 1.4425 11.3702 1.64625 11.1903L11.6462 2.13194L11.66 2.11874C12.0282 1.79727 12.5079 1.61914 13.0056 1.61914C13.5033 1.61914 13.9831 1.79727 14.3512 2.11874C14.3555 2.12344 14.3601 2.12785 14.365 2.13194L24.365 11.1903C24.5667 11.3711 24.7272 11.5901 24.8365 11.8334C24.9458 12.0767 25.0014 12.3391 25 12.604Z"
            />
        </symbol>

        <!-- home_solid-->
        <symbol viewBox="0 0 26 27" id="home_solid">
            <path
                fill="currentColor"
                d="M25 12.604V23.699C25 24.2082 24.7893 24.6966 24.4142 25.0567C24.0391 25.4168 23.5304 25.6191 23 25.6191H18C17.4695 25.6191 16.9608 25.4168 16.5858 25.0567C16.2107 24.6966 16 24.2082 16 23.699V18.8986C16 18.6439 15.8946 18.3997 15.7071 18.2197C15.5196 18.0396 15.2652 17.9385 15 17.9385H11C10.7348 17.9385 10.4804 18.0396 10.2929 18.2197C10.1053 18.3997 9.99999 18.6439 9.99999 18.8986V23.699C9.99999 24.2082 9.78928 24.6966 9.4142 25.0567C9.03913 25.4168 8.53042 25.6191 7.99999 25.6191H3C2.46957 25.6191 1.96086 25.4168 1.58579 25.0567C1.21071 24.6966 1 24.2082 1 23.699V12.604C0.999958 12.3383 1.05737 12.0754 1.16861 11.8321C1.27985 11.5887 1.4425 11.3702 1.64625 11.1903L11.6462 2.13194L11.66 2.11874C12.0282 1.79727 12.5079 1.61914 13.0056 1.61914C13.5033 1.61914 13.9831 1.79727 14.3512 2.11874C14.3555 2.12344 14.3601 2.12785 14.365 2.13194L24.365 11.1903C24.5667 11.3711 24.7272 11.5901 24.8365 11.8334C24.9458 12.0767 25.0014 12.3391 25 12.604Z"
            />
        </symbol>

        <!-- passengers-->
        <symbol viewBox="0 0 26 19" id="passengers">
            <path
                fill="white"
                stroke="currentColor"
                stroke-width="2px"
                stroke-linejoin="round"
                border="#ed6a01"
                d="M16.9999 9.22655C15.9719 9.22655 14.9779 8.79746 14.1999 8.01875C13.4434 7.25919 12.9814 6.2463 12.8999 5.1675C12.8129 4.01671 13.1884 2.95848 13.9569 2.18724C14.7254 1.416 15.7999 1 16.9999 1C18.1914 1 19.2688 1.42348 20.0348 2.19285C20.8083 2.9697 21.1848 4.02606 21.0978 5.16703C21.0143 6.24723 20.5528 7.25966 19.7978 8.01828C19.0218 8.79746 18.0284 9.22655 16.9999 9.22655ZM23.5913 17.4531H10.4089C10.197 17.4542 9.98757 17.4098 9.79687 17.3233C9.60617 17.2368 9.43923 17.1106 9.3089 16.9544C9.17065 16.785 9.07518 16.5886 9.02964 16.3798C8.98409 16.1711 8.98965 15.9554 9.0459 15.7489C9.4669 14.1686 10.5099 12.8579 12.0619 11.9591C13.4394 11.1617 15.1929 10.7223 16.9999 10.7223C18.8424 10.7223 20.5498 11.143 21.9353 11.9399C23.4908 12.8341 24.5353 14.1522 24.9543 15.7517C25.0099 15.9583 25.0148 16.174 24.9688 16.3827C24.9227 16.5913 24.8268 16.7875 24.6883 16.9567C24.5581 17.1122 24.3916 17.2378 24.2014 17.3239C24.0113 17.4099 23.8026 17.4541 23.5913 17.4531ZM7.54991 9.41352C5.79042 9.41352 4.24343 7.88413 4.09993 6.00464C4.02893 5.04176 4.34993 4.15133 4.99992 3.49835C5.64292 2.85191 6.54991 2.49574 7.54991 2.49574C8.5499 2.49574 9.4499 2.85378 10.0964 3.50396C10.7514 4.16208 11.0714 5.05064 10.9964 6.00558C10.8529 7.8846 9.3064 9.41352 7.54991 9.41352ZM10.8329 10.8835C9.9534 10.4816 8.8119 10.2806 7.55041 10.2806C6.07742 10.2806 4.64692 10.6396 3.52193 11.2911C2.24644 12.0311 1.38844 13.1085 1.04194 14.4093C0.991236 14.5964 0.98644 14.7918 1.02791 14.9809C1.06939 15.17 1.15606 15.3478 1.28144 15.5012C1.40041 15.6439 1.55283 15.7593 1.72697 15.8384C1.90111 15.9175 2.09234 15.9582 2.28594 15.9574H7.83591C7.92958 15.9574 8.02028 15.9266 8.09219 15.8705C8.1641 15.8144 8.21266 15.7364 8.2294 15.6503C8.2349 15.6208 8.24191 15.5914 8.24991 15.5624C8.6739 13.9704 9.6674 12.6251 11.1354 11.6445C11.1894 11.6081 11.2328 11.5597 11.2617 11.5037C11.2907 11.4476 11.3042 11.3857 11.301 11.3236C11.2979 11.2614 11.2783 11.201 11.2438 11.1477C11.2094 11.0945 11.1613 11.0501 11.1039 11.0186C11.0254 10.9756 10.9354 10.9303 10.8329 10.8835Z"
            />
        </symbol>

        <!-- passengers_solid-->
        <symbol viewBox="0 0 26 19" id="passengers_solid">
            <path
                fill="currentColor"
                d="M16.9999 9.22655C15.9719 9.22655 14.9779 8.79746 14.1999 8.01875C13.4434 7.25919 12.9814 6.2463 12.8999 5.1675C12.8129 4.01671 13.1884 2.95848 13.9569 2.18724C14.7254 1.416 15.7999 1 16.9999 1C18.1914 1 19.2688 1.42348 20.0348 2.19285C20.8083 2.9697 21.1848 4.02606 21.0978 5.16703C21.0143 6.24723 20.5528 7.25966 19.7978 8.01828C19.0218 8.79746 18.0284 9.22655 16.9999 9.22655ZM23.5913 17.4531H10.4089C10.1969 17.4542 9.98757 17.4098 9.79687 17.3233C9.60617 17.2368 9.43923 17.1106 9.3089 16.9544C9.17065 16.785 9.07518 16.5886 9.02964 16.3798C8.98409 16.1711 8.98965 15.9554 9.0459 15.7489C9.4669 14.1686 10.5099 12.8579 12.0619 11.9591C13.4394 11.1617 15.1929 10.7223 16.9999 10.7223C18.8424 10.7223 20.5498 11.143 21.9353 11.9399C23.4908 12.8341 24.5353 14.1522 24.9543 15.7517C25.0099 15.9583 25.0148 16.174 24.9688 16.3827C24.9227 16.5913 24.8268 16.7875 24.6883 16.9567C24.5581 17.1122 24.3916 17.2378 24.2014 17.3239C24.0113 17.4099 23.8026 17.4541 23.5913 17.4531ZM7.54991 9.41352C5.79042 9.41352 4.24343 7.88413 4.09993 6.00464C4.02893 5.04176 4.34993 4.15133 4.99992 3.49835C5.64292 2.85191 6.54991 2.49574 7.54991 2.49574C8.5499 2.49574 9.4499 2.85378 10.0964 3.50396C10.7514 4.16208 11.0714 5.05064 10.9964 6.00558C10.8529 7.8846 9.3064 9.41352 7.54991 9.41352ZM10.8329 10.8835C9.9534 10.4816 8.8119 10.2806 7.55041 10.2806C6.07742 10.2806 4.64692 10.6396 3.52193 11.2911C2.24644 12.0311 1.38844 13.1085 1.04194 14.4093C0.991236 14.5964 0.98644 14.7918 1.02791 14.9809C1.06939 15.17 1.15606 15.3478 1.28144 15.5012C1.40041 15.644 1.55283 15.7593 1.72697 15.8384C1.90111 15.9175 2.09234 15.9582 2.28594 15.9574H7.83591C7.92958 15.9574 8.02028 15.9266 8.09219 15.8705C8.1641 15.8144 8.21266 15.7364 8.2294 15.6503C8.2349 15.6208 8.24191 15.5914 8.24991 15.5624C8.6739 13.9704 9.6674 12.6251 11.1354 11.6445C11.1894 11.6081 11.2328 11.5597 11.2617 11.5037C11.2907 11.4476 11.3042 11.3857 11.301 11.3236C11.2979 11.2614 11.2783 11.201 11.2438 11.1477C11.2094 11.0945 11.1613 11.0501 11.1039 11.0186C11.0254 10.9756 10.9354 10.9303 10.8329 10.8835Z"
            />
        </symbol>

        <!-- rides-->
        <symbol viewBox="0 0 26 32" id="rides">
            <path
                fill="white"
                stroke="currentColor"
                stroke-width="2.5px"
                stroke-linejoin="round"
                border="#ed6a01"
                d="M25 13C25 22.3333 13 30.3333 13 30.3333C13 30.3333 1 22.3333 1 13C1 9.8174 2.26428 6.76516 4.51472 4.51472C6.76516 2.26428 9.8174 1 13 1C16.1826 1 19.2348 2.26428 21.4853 4.51472C23.7357 6.76516 25 9.8174 25 13Z"
            />
            <path
                fill="white"
                stroke="currentColor"
                stroke-width="2.5px"
                stroke-linejoin="round"
                border="#ed6a01"
                d="M13 16.999C15.2091 16.999 17 15.2082 17 12.999C17 10.7899 15.2091 8.99902 13 8.99902C10.7909 8.99902 9 10.7899 9 12.999C9 15.2082 10.7909 16.999 13 16.999Z"
            />
        </symbol>

        <!-- rides_solid-->
        <symbol viewBox="0 0 26 32" id="rides_solid">
            <path
                fill="currentColor"
                d="M25 13C25 22.3333 13 30.3333 13 30.3333C13 30.3333 1 22.3333 1 13C1 9.8174 2.26428 6.76516 4.51472 4.51472C6.76516 2.26428 9.8174 1 13 1C16.1826 1 19.2348 2.26428 21.4853 4.51472C23.7357 6.76516 25 9.8174 25 13Z"
            />
            <path
                fill="white"
                d="M13 16.999C15.2091 16.999 17 15.2082 17 12.999C17 10.7899 15.2091 8.99902 13 8.99902C10.7909 8.99902 9 10.7899 9 12.999C9 15.2082 10.7909 16.999 13 16.999Z"
            />
        </symbol>

        <!-- chat-->
        <symbol viewBox="0 0 24 23" id="chat">
            <path
                fill="white"
                stroke="currentColor"
                stroke-width="2px"
                stroke-linejoin="round"
                border="#ed6a01"
                d="M12.0504 15.696H11.7201L11.4548 15.8928L3.72198 21.6267C3.69223 21.6487 3.65626 21.6625 3.61805 21.6659C3.57982 21.6692 3.54165 21.6619 3.50798 21.6451C3.47435 21.6283 3.44697 21.6029 3.42823 21.5727C3.40952 21.5425 3.39995 21.5083 3.4 21.4738V21.4723V16.6948V15.6948H2.4C2.0267 15.6948 1.66993 15.5474 1.40785 15.287C1.14598 15.0267 1 14.675 1 14.3097V3.57653C1 2.89489 1.27241 2.2399 1.75932 1.756C2.24585 1.27248 2.90759 1 3.6 1H20.4C21.0916 1 21.7536 1.27308 22.2407 1.75719C22.7276 2.24109 23 2.89608 23 3.57772V13.1183C23 13.8 22.7276 14.4549 22.2407 14.9388C21.7536 15.423 21.0916 15.696 20.4 15.696H12.0504Z"
            />
        </symbol>

        <!-- chat_solid-->
        <symbol viewBox="0 0 24 23" id="chat_solid">
            <path
                fill="currentColor"
                d="M12.0504 15.696H11.7201L11.4548 15.8928L3.72198 21.6267C3.69223 21.6487 3.65626 21.6625 3.61805 21.6659C3.57982 21.6692 3.54165 21.6619 3.50798 21.6451C3.47435 21.6283 3.44697 21.6029 3.42823 21.5727C3.40952 21.5425 3.39995 21.5083 3.4 21.4738V21.4723V16.6948V15.6948H2.4C2.0267 15.6948 1.66993 15.5474 1.40785 15.287C1.14598 15.0267 1 14.675 1 14.3097V3.57653C1 2.89489 1.27241 2.2399 1.75932 1.756C2.24585 1.27248 2.90759 1 3.6 1H20.4C21.0916 1 21.7536 1.27308 22.2407 1.75719C22.7276 2.24109 23 2.89608 23 3.57772V13.1183C23 13.8 22.7276 14.4549 22.2407 14.9388C21.7536 15.423 21.0916 15.696 20.4 15.696H12.0504Z"
            />
        </symbol>

        <!-- settings-->
        <symbol viewBox="0 0 512 512" id="settings">
            <path
                fill="#ED6A01"
                d="M256 0c17 0 33.6 1.7 49.8 4.8c7.9 1.5 21.8 6.1 29.4 20.1c2 3.7 3.6 7.6 4.6 11.8l9.3 38.5C350.5 81 360.3 86.7 366 85l38-11.2c4-1.2 8.1-1.8 12.2-1.9c16.1-.5 27 9.4 32.3 15.4c22.1 25.1 39.1 54.6 49.9 86.3c2.6 7.6 5.6 21.8-2.7 35.4c-2.2 3.6-4.9 7-8 10L459 246.3c-4.2 4-4.2 15.5 0 19.5l28.7 27.3c3.1 3 5.8 6.4 8 10c8.2 13.6 5.2 27.8 2.7 35.4c-10.8 31.7-27.8 61.1-49.9 86.3c-5.3 6-16.3 15.9-32.3 15.4c-4.1-.1-8.2-.8-12.2-1.9L366 427c-5.7-1.7-15.5 4-16.9 9.8l-9.3 38.5c-1 4.2-2.6 8.2-4.6 11.8c-7.7 14-21.6 18.5-29.4 20.1C289.6 510.3 273 512 256 512s-33.6-1.7-49.8-4.8c-7.9-1.5-21.8-6.1-29.4-20.1c-2-3.7-3.6-7.6-4.6-11.8l-9.3-38.5c-1.4-5.8-11.2-11.5-16.9-9.8l-38 11.2c-4 1.2-8.1 1.8-12.2 1.9c-16.1 .5-27-9.4-32.3-15.4c-22-25.1-39.1-54.6-49.9-86.3c-2.6-7.6-5.6-21.8 2.7-35.4c2.2-3.6 4.9-7 8-10L53 265.7c4.2-4 4.2-15.5 0-19.5L24.2 218.9c-3.1-3-5.8-6.4-8-10C8 195.3 11 181.1 13.6 173.6c10.8-31.7 27.8-61.1 49.9-86.3c5.3-6 16.3-15.9 32.3-15.4c4.1 .1 8.2 .8 12.2 1.9L146 85c5.7 1.7 15.5-4 16.9-9.8l9.3-38.5c1-4.2 2.6-8.2 4.6-11.8c7.7-14 21.6-18.5 29.4-20.1C222.4 1.7 239 0 256 0zM218.1 51.4l-8.5 35.1c-7.8 32.3-45.3 53.9-77.2 44.6L97.9 120.9c-16.5 19.3-29.5 41.7-38 65.7l26.2 24.9c24 22.8 24 66.2 0 89L59.9 325.4c8.5 24 21.5 46.4 38 65.7l34.6-10.2c31.8-9.4 69.4 12.3 77.2 44.6l8.5 35.1c24.6 4.5 51.3 4.5 75.9 0l8.5-35.1c7.8-32.3 45.3-53.9 77.2-44.6l34.6 10.2c16.5-19.3 29.5-41.7 38-65.7l-26.2-24.9c-24-22.8-24-66.2 0-89l26.2-24.9c-8.5-24-21.5-46.4-38-65.7l-34.6 10.2c-31.8 9.4-69.4-12.3-77.2-44.6l-8.5-35.1c-24.6-4.5-51.3-4.5-75.9 0zM208 256a48 48 0 1 0 96 0 48 48 0 1 0 -96 0zm48 96a96 96 0 1 1 0-192 96 96 0 1 1 0 192z"
            />
        </symbol>


        <!-- settings_solid-->
        <symbol viewBox="0 0 512 512" id="settings_solid">
            <path
                fill="currentColor" 
                d="M495.9 166.6c3.2 8.7 .5 18.4-6.4 24.6l-43.3 39.4c1.1 8.3 1.7 16.8 1.7 25.4s-.6 17.1-1.7 25.4l43.3 39.4c6.9 6.2 9.6 15.9 6.4 24.6c-4.4 11.9-9.7 23.3-15.8 34.3l-4.7 8.1c-6.6 11-14 21.4-22.1 31.2c-5.9 7.2-15.7 9.6-24.5 6.8l-55.7-17.7c-13.4 10.3-28.2 18.9-44 25.4l-12.5 57.1c-2 9.1-9 16.3-18.2 17.8c-13.8 2.3-28 3.5-42.5 3.5s-28.7-1.2-42.5-3.5c-9.2-1.5-16.2-8.7-18.2-17.8l-12.5-57.1c-15.8-6.5-30.6-15.1-44-25.4L83.1 425.9c-8.8 2.8-18.6 .3-24.5-6.8c-8.1-9.8-15.5-20.2-22.1-31.2l-4.7-8.1c-6.1-11-11.4-22.4-15.8-34.3c-3.2-8.7-.5-18.4 6.4-24.6l43.3-39.4C64.6 273.1 64 264.6 64 256s.6-17.1 1.7-25.4L22.4 191.2c-6.9-6.2-9.6-15.9-6.4-24.6c4.4-11.9 9.7-23.3 15.8-34.3l4.7-8.1c6.6-11 14-21.4 22.1-31.2c5.9-7.2 15.7-9.6 24.5-6.8l55.7 17.7c13.4-10.3 28.2-18.9 44-25.4l12.5-57.1c2-9.1 9-16.3 18.2-17.8C227.3 1.2 241.5 0 256 0s28.7 1.2 42.5 3.5c9.2 1.5 16.2 8.7 18.2 17.8l12.5 57.1c15.8 6.5 30.6 15.1 44 25.4l55.7-17.7c8.8-2.8 18.6-.3 24.5 6.8c8.1 9.8 15.5 20.2 22.1 31.2l4.7 8.1c6.1 11 11.4 22.4 15.8 34.3zM256 336a80 80 0 1 0 0-160 80 80 0 1 0 0 160z"
            />
        </symbol>

        <!-- logout -->
        <symbol viewBox="0 0 26 24" id="logout">
            <path
                fill="white"
                d="M9 22.9375L3.66668 22.9375C2.95943 22.9375 2.28116 22.6807 1.78106 22.2236C1.28097 21.7665 1.00001 21.1465 1.00001 20.5L1.00002 3.4375C1.00002 2.79103 1.28097 2.17104 1.78107 1.71392C2.28116 1.2568 2.95944 0.999996 3.66668 0.999996L9.00001 0.999998"
                stroke="#ED6A01"
                stroke-width="2"
                stroke-linecap="round"
                stroke-linejoin="round"
            />
            <path
                fill="white"
                d="M15.667 5.87505L9.00033 11.9688L15.667 18.0625"
                stroke="#ED6A01"
                stroke-width="2"
                stroke-linecap="round"
                stroke-linejoin="round"
            />
            <path
                fill="white"
                d="M9.00002 11.9687L25 11.9688"
                stroke="#ED6A01"
                stroke-width="2"
                stroke-linecap="round"
                stroke-linejoin="round"
            />
        </symbol>
    </defs>
</svg>
