<svg xmlns="http://www.w3.org/2000/svg">
    <defs>
        <!-- home -->
        <symbol viewBox="0 0 26 27" id="home">
            <path
                fill="white"
                stroke="currentColor"
                stroke-width="2px"
                stroke-linejoin="round"
                border="#ed6a01"
                d="M25 12.604V23.699C25 24.2082 24.7893 24.6966 24.4142 25.0567C24.0391 25.4168 23.5304 25.6191 23 25.6191H18C17.4695 25.6191 16.9608 25.4168 16.5858 25.0567C16.2107 24.6966 16 24.2082 16 23.699V18.8986C16 18.6439 15.8946 18.3997 15.7071 18.2197C15.5196 18.0396 15.2652 17.9385 15 17.9385H11C10.7348 17.9385 10.4804 18.0396 10.2929 18.2197C10.1053 18.3997 9.99999 18.6439 9.99999 18.8986V23.699C9.99999 24.2082 9.78928 24.6966 9.4142 25.0567C9.03913 25.4168 8.53042 25.6191 7.99999 25.6191H3C2.46957 25.6191 1.96086 25.4168 1.58579 25.0567C1.21071 24.6966 1 24.2082 1 23.699V12.604C0.999958 12.3383 1.05737 12.0754 1.16861 11.8321C1.27985 11.5887 1.4425 11.3702 1.64625 11.1903L11.6462 2.13194L11.66 2.11874C12.0282 1.79727 12.5079 1.61914 13.0056 1.61914C13.5033 1.61914 13.9831 1.79727 14.3512 2.11874C14.3555 2.12344 14.3601 2.12785 14.365 2.13194L24.365 11.1903C24.5667 11.3711 24.7272 11.5901 24.8365 11.8334C24.9458 12.0767 25.0014 12.3391 25 12.604Z"
            />
        </symbol>

        <!-- home_solid-->
        <symbol viewBox="0 0 26 27" id="home_solid">
            <path
                fill="currentColor"
                d="M25 12.604V23.699C25 24.2082 24.7893 24.6966 24.4142 25.0567C24.0391 25.4168 23.5304 25.6191 23 25.6191H18C17.4695 25.6191 16.9608 25.4168 16.5858 25.0567C16.2107 24.6966 16 24.2082 16 23.699V18.8986C16 18.6439 15.8946 18.3997 15.7071 18.2197C15.5196 18.0396 15.2652 17.9385 15 17.9385H11C10.7348 17.9385 10.4804 18.0396 10.2929 18.2197C10.1053 18.3997 9.99999 18.6439 9.99999 18.8986V23.699C9.99999 24.2082 9.78928 24.6966 9.4142 25.0567C9.03913 25.4168 8.53042 25.6191 7.99999 25.6191H3C2.46957 25.6191 1.96086 25.4168 1.58579 25.0567C1.21071 24.6966 1 24.2082 1 23.699V12.604C0.999958 12.3383 1.05737 12.0754 1.16861 11.8321C1.27985 11.5887 1.4425 11.3702 1.64625 11.1903L11.6462 2.13194L11.66 2.11874C12.0282 1.79727 12.5079 1.61914 13.0056 1.61914C13.5033 1.61914 13.9831 1.79727 14.3512 2.11874C14.3555 2.12344 14.3601 2.12785 14.365 2.13194L24.365 11.1903C24.5667 11.3711 24.7272 11.5901 24.8365 11.8334C24.9458 12.0767 25.0014 12.3391 25 12.604Z"
            />
        </symbol>

        <!-- passengers-->
        <symbol viewBox="0 0 26 19" id="passengers">
            <path
                fill="white"
                stroke="currentColor"
                stroke-width="2px"
                stroke-linejoin="round"
                border="#ed6a01"
                d="M16.9999 9.22655C15.9719 9.22655 14.9779 8.79746 14.1999 8.01875C13.4434 7.25919 12.9814 6.2463 12.8999 5.1675C12.8129 4.01671 13.1884 2.95848 13.9569 2.18724C14.7254 1.416 15.7999 1 16.9999 1C18.1914 1 19.2688 1.42348 20.0348 2.19285C20.8083 2.9697 21.1848 4.02606 21.0978 5.16703C21.0143 6.24723 20.5528 7.25966 19.7978 8.01828C19.0218 8.79746 18.0284 9.22655 16.9999 9.22655ZM23.5913 17.4531H10.4089C10.197 17.4542 9.98757 17.4098 9.79687 17.3233C9.60617 17.2368 9.43923 17.1106 9.3089 16.9544C9.17065 16.785 9.07518 16.5886 9.02964 16.3798C8.98409 16.1711 8.98965 15.9554 9.0459 15.7489C9.4669 14.1686 10.5099 12.8579 12.0619 11.9591C13.4394 11.1617 15.1929 10.7223 16.9999 10.7223C18.8424 10.7223 20.5498 11.143 21.9353 11.9399C23.4908 12.8341 24.5353 14.1522 24.9543 15.7517C25.0099 15.9583 25.0148 16.174 24.9688 16.3827C24.9227 16.5913 24.8268 16.7875 24.6883 16.9567C24.5581 17.1122 24.3916 17.2378 24.2014 17.3239C24.0113 17.4099 23.8026 17.4541 23.5913 17.4531ZM7.54991 9.41352C5.79042 9.41352 4.24343 7.88413 4.09993 6.00464C4.02893 5.04176 4.34993 4.15133 4.99992 3.49835C5.64292 2.85191 6.54991 2.49574 7.54991 2.49574C8.5499 2.49574 9.4499 2.85378 10.0964 3.50396C10.7514 4.16208 11.0714 5.05064 10.9964 6.00558C10.8529 7.8846 9.3064 9.41352 7.54991 9.41352ZM10.8329 10.8835C9.9534 10.4816 8.8119 10.2806 7.55041 10.2806C6.07742 10.2806 4.64692 10.6396 3.52193 11.2911C2.24644 12.0311 1.38844 13.1085 1.04194 14.4093C0.991236 14.5964 0.98644 14.7918 1.02791 14.9809C1.06939 15.17 1.15606 15.3478 1.28144 15.5012C1.40041 15.6439 1.55283 15.7593 1.72697 15.8384C1.90111 15.9175 2.09234 15.9582 2.28594 15.9574H7.83591C7.92958 15.9574 8.02028 15.9266 8.09219 15.8705C8.1641 15.8144 8.21266 15.7364 8.2294 15.6503C8.2349 15.6208 8.24191 15.5914 8.24991 15.5624C8.6739 13.9704 9.6674 12.6251 11.1354 11.6445C11.1894 11.6081 11.2328 11.5597 11.2617 11.5037C11.2907 11.4476 11.3042 11.3857 11.301 11.3236C11.2979 11.2614 11.2783 11.201 11.2438 11.1477C11.2094 11.0945 11.1613 11.0501 11.1039 11.0186C11.0254 10.9756 10.9354 10.9303 10.8329 10.8835Z"
            />
        </symbol>

        <!-- passengers_solid-->
        <symbol viewBox="0 0 26 19" id="passengers_solid">
            <path
                fill="currentColor"
                d="M16.9999 9.22655C15.9719 9.22655 14.9779 8.79746 14.1999 8.01875C13.4434 7.25919 12.9814 6.2463 12.8999 5.1675C12.8129 4.01671 13.1884 2.95848 13.9569 2.18724C14.7254 1.416 15.7999 1 16.9999 1C18.1914 1 19.2688 1.42348 20.0348 2.19285C20.8083 2.9697 21.1848 4.02606 21.0978 5.16703C21.0143 6.24723 20.5528 7.25966 19.7978 8.01828C19.0218 8.79746 18.0284 9.22655 16.9999 9.22655ZM23.5913 17.4531H10.4089C10.1969 17.4542 9.98757 17.4098 9.79687 17.3233C9.60617 17.2368 9.43923 17.1106 9.3089 16.9544C9.17065 16.785 9.07518 16.5886 9.02964 16.3798C8.98409 16.1711 8.98965 15.9554 9.0459 15.7489C9.4669 14.1686 10.5099 12.8579 12.0619 11.9591C13.4394 11.1617 15.1929 10.7223 16.9999 10.7223C18.8424 10.7223 20.5498 11.143 21.9353 11.9399C23.4908 12.8341 24.5353 14.1522 24.9543 15.7517C25.0099 15.9583 25.0148 16.174 24.9688 16.3827C24.9227 16.5913 24.8268 16.7875 24.6883 16.9567C24.5581 17.1122 24.3916 17.2378 24.2014 17.3239C24.0113 17.4099 23.8026 17.4541 23.5913 17.4531ZM7.54991 9.41352C5.79042 9.41352 4.24343 7.88413 4.09993 6.00464C4.02893 5.04176 4.34993 4.15133 4.99992 3.49835C5.64292 2.85191 6.54991 2.49574 7.54991 2.49574C8.5499 2.49574 9.4499 2.85378 10.0964 3.50396C10.7514 4.16208 11.0714 5.05064 10.9964 6.00558C10.8529 7.8846 9.3064 9.41352 7.54991 9.41352ZM10.8329 10.8835C9.9534 10.4816 8.8119 10.2806 7.55041 10.2806C6.07742 10.2806 4.64692 10.6396 3.52193 11.2911C2.24644 12.0311 1.38844 13.1085 1.04194 14.4093C0.991236 14.5964 0.98644 14.7918 1.02791 14.9809C1.06939 15.17 1.15606 15.3478 1.28144 15.5012C1.40041 15.644 1.55283 15.7593 1.72697 15.8384C1.90111 15.9175 2.09234 15.9582 2.28594 15.9574H7.83591C7.92958 15.9574 8.02028 15.9266 8.09219 15.8705C8.1641 15.8144 8.21266 15.7364 8.2294 15.6503C8.2349 15.6208 8.24191 15.5914 8.24991 15.5624C8.6739 13.9704 9.6674 12.6251 11.1354 11.6445C11.1894 11.6081 11.2328 11.5597 11.2617 11.5037C11.2907 11.4476 11.3042 11.3857 11.301 11.3236C11.2979 11.2614 11.2783 11.201 11.2438 11.1477C11.2094 11.0945 11.1613 11.0501 11.1039 11.0186C11.0254 10.9756 10.9354 10.9303 10.8329 10.8835Z"
            />
        </symbol>

        <!-- rides-->
        <symbol viewBox="0 0 26 32" id="rides">
            <path
                fill="white"
                stroke="currentColor"
                stroke-width="2.5px"
                stroke-linejoin="round"
                border="#ed6a01"
                d="M25 13C25 22.3333 13 30.3333 13 30.3333C13 30.3333 1 22.3333 1 13C1 9.8174 2.26428 6.76516 4.51472 4.51472C6.76516 2.26428 9.8174 1 13 1C16.1826 1 19.2348 2.26428 21.4853 4.51472C23.7357 6.76516 25 9.8174 25 13Z"
            />
            <path
                fill="white"
                stroke="currentColor"
                stroke-width="2.5px"
                stroke-linejoin="round"
                border="#ed6a01"
                d="M13 16.999C15.2091 16.999 17 15.2082 17 12.999C17 10.7899 15.2091 8.99902 13 8.99902C10.7909 8.99902 9 10.7899 9 12.999C9 15.2082 10.7909 16.999 13 16.999Z"
            />
        </symbol>

        <!-- rides_solid-->
        <symbol viewBox="0 0 26 32" id="rides_solid">
            <path
                fill="currentColor"
                d="M25 13C25 22.3333 13 30.3333 13 30.3333C13 30.3333 1 22.3333 1 13C1 9.8174 2.26428 6.76516 4.51472 4.51472C6.76516 2.26428 9.8174 1 13 1C16.1826 1 19.2348 2.26428 21.4853 4.51472C23.7357 6.76516 25 9.8174 25 13Z"
            />
            <path
                fill="white"
                d="M13 16.999C15.2091 16.999 17 15.2082 17 12.999C17 10.7899 15.2091 8.99902 13 8.99902C10.7909 8.99902 9 10.7899 9 12.999C9 15.2082 10.7909 16.999 13 16.999Z"
            />
        </symbol>

        <!-- chat-->
        <symbol viewBox="0 0 24 23" id="chat">
            <path
                fill="white"
                stroke="currentColor"
                stroke-width="2px"
                stroke-linejoin="round"
                border="#ed6a01"
                d="M12.0504 15.696H11.7201L11.4548 15.8928L3.72198 21.6267C3.69223 21.6487 3.65626 21.6625 3.61805 21.6659C3.57982 21.6692 3.54165 21.6619 3.50798 21.6451C3.47435 21.6283 3.44697 21.6029 3.42823 21.5727C3.40952 21.5425 3.39995 21.5083 3.4 21.4738V21.4723V16.6948V15.6948H2.4C2.0267 15.6948 1.66993 15.5474 1.40785 15.287C1.14598 15.0267 1 14.675 1 14.3097V3.57653C1 2.89489 1.27241 2.2399 1.75932 1.756C2.24585 1.27248 2.90759 1 3.6 1H20.4C21.0916 1 21.7536 1.27308 22.2407 1.75719C22.7276 2.24109 23 2.89608 23 3.57772V13.1183C23 13.8 22.7276 14.4549 22.2407 14.9388C21.7536 15.423 21.0916 15.696 20.4 15.696H12.0504Z"
            />
        </symbol>

        <!-- chat_solid-->
        <symbol viewBox="0 0 24 23" id="chat_solid">
            <path
                fill="currentColor"
                d="M12.0504 15.696H11.7201L11.4548 15.8928L3.72198 21.6267C3.69223 21.6487 3.65626 21.6625 3.61805 21.6659C3.57982 21.6692 3.54165 21.6619 3.50798 21.6451C3.47435 21.6283 3.44697 21.6029 3.42823 21.5727C3.40952 21.5425 3.39995 21.5083 3.4 21.4738V21.4723V16.6948V15.6948H2.4C2.0267 15.6948 1.66993 15.5474 1.40785 15.287C1.14598 15.0267 1 14.675 1 14.3097V3.57653C1 2.89489 1.27241 2.2399 1.75932 1.756C2.24585 1.27248 2.90759 1 3.6 1H20.4C21.0916 1 21.7536 1.27308 22.2407 1.75719C22.7276 2.24109 23 2.89608 23 3.57772V13.1183C23 13.8 22.7276 14.4549 22.2407 14.9388C21.7536 15.423 21.0916 15.696 20.4 15.696H12.0504Z"
            />
        </symbol>

        <!-- settings-->
        <symbol viewBox="0 0 512 512" id="settings">
            <path
                fill="#ED6A01"
                d="M256 0c17 0 33.6 1.7 49.8 4.8c7.9 1.5 21.8 6.1 29.4 20.1c2 3.7 3.6 7.6 4.6 11.8l9.3 38.5C350.5 81 360.3 86.7 366 85l38-11.2c4-1.2 8.1-1.8 12.2-1.9c16.1-.5 27 9.4 32.3 15.4c22.1 25.1 39.1 54.6 49.9 86.3c2.6 7.6 5.6 21.8-2.7 35.4c-2.2 3.6-4.9 7-8 10L459 246.3c-4.2 4-4.2 15.5 0 19.5l28.7 27.3c3.1 3 5.8 6.4 8 10c8.2 13.6 5.2 27.8 2.7 35.4c-10.8 31.7-27.8 61.1-49.9 86.3c-5.3 6-16.3 15.9-32.3 15.4c-4.1-.1-8.2-.8-12.2-1.9L366 427c-5.7-1.7-15.5 4-16.9 9.8l-9.3 38.5c-1 4.2-2.6 8.2-4.6 11.8c-7.7 14-21.6 18.5-29.4 20.1C289.6 510.3 273 512 256 512s-33.6-1.7-49.8-4.8c-7.9-1.5-21.8-6.1-29.4-20.1c-2-3.7-3.6-7.6-4.6-11.8l-9.3-38.5c-1.4-5.8-11.2-11.5-16.9-9.8l-38 11.2c-4 1.2-8.1 1.8-12.2 1.9c-16.1 .5-27-9.4-32.3-15.4c-22-25.1-39.1-54.6-49.9-86.3c-2.6-7.6-5.6-21.8 2.7-35.4c2.2-3.6 4.9-7 8-10L53 265.7c4.2-4 4.2-15.5 0-19.5L24.2 218.9c-3.1-3-5.8-6.4-8-10C8 195.3 11 181.1 13.6 173.6c10.8-31.7 27.8-61.1 49.9-86.3c5.3-6 16.3-15.9 32.3-15.4c4.1 .1 8.2 .8 12.2 1.9L146 85c5.7 1.7 15.5-4 16.9-9.8l9.3-38.5c1-4.2 2.6-8.2 4.6-11.8c7.7-14 21.6-18.5 29.4-20.1C222.4 1.7 239 0 256 0zM218.1 51.4l-8.5 35.1c-7.8 32.3-45.3 53.9-77.2 44.6L97.9 120.9c-16.5 19.3-29.5 41.7-38 65.7l26.2 24.9c24 22.8 24 66.2 0 89L59.9 325.4c8.5 24 21.5 46.4 38 65.7l34.6-10.2c31.8-9.4 69.4 12.3 77.2 44.6l8.5 35.1c24.6 4.5 51.3 4.5 75.9 0l8.5-35.1c7.8-32.3 45.3-53.9 77.2-44.6l34.6 10.2c16.5-19.3 29.5-41.7 38-65.7l-26.2-24.9c-24-22.8-24-66.2 0-89l26.2-24.9c-8.5-24-21.5-46.4-38-65.7l-34.6 10.2c-31.8 9.4-69.4-12.3-77.2-44.6l-8.5-35.1c-24.6-4.5-51.3-4.5-75.9 0zM208 256a48 48 0 1 0 96 0 48 48 0 1 0 -96 0zm48 96a96 96 0 1 1 0-192 96 96 0 1 1 0 192z"
            />
        </symbol>


        <!-- settings_solid-->
        <symbol viewBox="0 0 512 512" id="settings_solid">
            <path
                fill="currentColor" 
                d="M495.9 166.6c3.2 8.7 .5 18.4-6.4 24.6l-43.3 39.4c1.1 8.3 1.7 16.8 1.7 25.4s-.6 17.1-1.7 25.4l43.3 39.4c6.9 6.2 9.6 15.9 6.4 24.6c-4.4 11.9-9.7 23.3-15.8 34.3l-4.7 8.1c-6.6 11-14 21.4-22.1 31.2c-5.9 7.2-15.7 9.6-24.5 6.8l-55.7-17.7c-13.4 10.3-28.2 18.9-44 25.4l-12.5 57.1c-2 9.1-9 16.3-18.2 17.8c-13.8 2.3-28 3.5-42.5 3.5s-28.7-1.2-42.5-3.5c-9.2-1.5-16.2-8.7-18.2-17.8l-12.5-57.1c-15.8-6.5-30.6-15.1-44-25.4L83.1 425.9c-8.8 2.8-18.6 .3-24.5-6.8c-8.1-9.8-15.5-20.2-22.1-31.2l-4.7-8.1c-6.1-11-11.4-22.4-15.8-34.3c-3.2-8.7-.5-18.4 6.4-24.6l43.3-39.4C64.6 273.1 64 264.6 64 256s.6-17.1 1.7-25.4L22.4 191.2c-6.9-6.2-9.6-15.9-6.4-24.6c4.4-11.9 9.7-23.3 15.8-34.3l4.7-8.1c6.6-11 14-21.4 22.1-31.2c5.9-7.2 15.7-9.6 24.5-6.8l55.7 17.7c13.4-10.3 28.2-18.9 44-25.4l12.5-57.1c2-9.1 9-16.3 18.2-17.8C227.3 1.2 241.5 0 256 0s28.7 1.2 42.5 3.5c9.2 1.5 16.2 8.7 18.2 17.8l12.5 57.1c15.8 6.5 30.6 15.1 44 25.4l55.7-17.7c8.8-2.8 18.6-.3 24.5 6.8c8.1 9.8 15.5 20.2 22.1 31.2l4.7 8.1c6.1 11 11.4 22.4 15.8 34.3zM256 336a80 80 0 1 0 0-160 80 80 0 1 0 0 160z"
            />
        </symbol>

        <!-- logout -->
        <symbol viewBox="0 0 26 24" id="logout">
            <path
                fill="white"
                d="M9 22.9375L3.66668 22.9375C2.95943 22.9375 2.28116 22.6807 1.78106 22.2236C1.28097 21.7665 1.00001 21.1465 1.00001 20.5L1.00002 3.4375C1.00002 2.79103 1.28097 2.17104 1.78107 1.71392C2.28116 1.2568 2.95944 0.999996 3.66668 0.999996L9.00001 0.999998"
                stroke="#ED6A01"
                stroke-width="2"
                stroke-linecap="round"
                stroke-linejoin="round"
            />
            <path
                fill="white"
                d="M15.667 5.87505L9.00033 11.9688L15.667 18.0625"
                stroke="#ED6A01"
                stroke-width="2"
                stroke-linecap="round"
                stroke-linejoin="round"
            />
            <path
                fill="white"
                d="M9.00002 11.9687L25 11.9688"
                stroke="#ED6A01"
                stroke-width="2"
                stroke-linecap="round"
                stroke-linejoin="round"
            />
        </symbol>

        <!-- plus -->
        <symbol viewBox="0 0 23 23" id="plus">
        <path d="M11.0502 22.6775C10.6029 22.6775 10.2277 22.5259 9.92464 22.2229C9.62155 21.9198 9.47053 21.5451 9.47158 21.0989L9.47158 13.2059H1.5786C1.13133 13.2059 0.756153 13.0544 0.453063 12.7513C0.149972 12.4482 -0.00104693 12.0735 5.46226e-06 11.6273C5.46226e-06 11.1801 0.151551 10.8049 0.454641 10.5018C0.757732 10.1987 1.13238 10.0477 1.5786 10.0487H9.47158V2.15575C9.47158 1.70848 9.62313 1.3333 9.92622 1.03021C10.2293 0.727121 10.604 0.576102 11.0502 0.577154C11.4974 0.577154 11.8726 0.728699 12.1757 1.03179C12.4788 1.33488 12.6298 1.70953 12.6288 2.15575V10.0487L20.5218 10.0487C20.969 10.0487 21.3442 10.2003 21.6473 10.5034C21.9504 10.8065 22.1014 11.1811 22.1003 11.6273C22.1003 12.0746 21.9488 12.4498 21.6457 12.7529C21.3426 13.056 20.968 13.207 20.5218 13.2059L12.6288 13.2059L12.6288 21.0989C12.6288 21.5462 12.4772 21.9213 12.1741 22.2244C11.871 22.5275 11.4964 22.6785 11.0502 22.6775Z" fill="currentColor"/>
        </symbol>

        <!-- search -->
        <symbol viewBox="0 0 22 22" id="search">
        <path fill="currentColor" d="M19.5714 21.6066L16.711 18.7395C15.5748 17.6006 13.7639 17.5529 12.25 18.0971C11.3214 18.4309 10.3333 18.5978 9.28571 18.5978C6.69048 18.5978 4.49429 17.6975 2.69714 15.8969C0.9 14.0962 0.000952381 11.8969 0 9.29892C0 6.69999 0.899048 4.50068 2.69714 2.70098C4.49524 0.90128 6.69143 0.000953736 9.28571 0C11.881 0 14.0771 0.900326 15.8743 2.70098C17.6714 4.50163 18.5705 6.70095 18.5714 9.29892C18.5714 10.348 18.4048 11.3375 18.0714 12.2674C17.5277 13.7844 17.5744 15.5973 18.7125 16.7381L21.6071 19.6395C21.8691 19.9018 22 20.2237 22 20.6052C22 20.9867 21.8571 21.3205 21.5714 21.6066C21.3095 21.8689 20.9762 22 20.5714 22C20.1667 22 19.8333 21.8689 19.5714 21.6066ZM9.28571 15.7366C11.0714 15.7366 12.5895 15.1105 13.84 13.8583C15.0905 12.606 15.7152 11.0862 15.7143 9.29892C15.7143 7.51067 15.089 5.99041 13.8386 4.73816C12.5881 3.4859 11.0705 2.86025 9.28571 2.86121C7.5 2.86121 5.9819 3.48733 4.73143 4.73959C3.48095 5.99184 2.85619 7.51162 2.85714 9.29892C2.85714 11.0872 3.48238 12.6074 4.73286 13.8597C5.98333 15.1119 7.50095 15.7376 9.28571 15.7366Z"/> 
        
        </symbol>

        <!-- dropdown -->
        <symbol viewBox="0 0 14 8" id="dropdown">
        <path opacity="0.25" d="M1 0.999999L7 7L13 1" stroke="#00202F" stroke-width="2" stroke-linecap="round" stroke-linejoin="round" fill="none"/>
        </symbol>
        

        <!-- calendar -->
        <symbol viewBox="0 0 16 16" id="calendar">
        <path opacity="0.25" fill-rule="evenodd" clip-rule="evenodd" d="M4.44379 5.33136C4.20807 5.33136 3.98201 5.23772 3.81534 5.07105C3.64867 4.90437 3.55503 4.67831 3.55503 4.4426V3.5574C3.0836 3.5574 2.63149 3.74467 2.29814 4.07802C1.96479 4.41137 1.77751 4.86349 1.77751 5.33491V6.51992H13.6276V5.33491C13.6276 4.86349 13.4403 4.41137 13.107 4.07802C12.7736 3.74467 12.3215 3.5574 11.8501 3.5574V4.44616C11.8501 4.68187 11.7565 4.90793 11.5898 5.0746C11.4231 5.24128 11.1971 5.33491 10.9613 5.33491C10.7256 5.33491 10.4996 5.24128 10.3329 5.0746C10.1662 4.90793 10.0726 4.68187 10.0726 4.44616V3.5574H5.33254V4.4426C5.33254 4.67831 5.23891 4.90437 5.07223 5.07105C4.90556 5.23772 4.6795 5.33136 4.44379 5.33136ZM10.0726 1.77988H5.33254V0.888757C5.33254 0.653044 5.23891 0.426985 5.07223 0.260311C4.90556 0.0936367 4.6795 0 4.44379 0C4.20807 0 3.98201 0.0936367 3.81534 0.260311C3.64867 0.426985 3.55503 0.653044 3.55503 0.888757V1.77988C2.61218 1.77988 1.70794 2.15443 1.04124 2.82113C0.374547 3.48783 0 4.39206 0 5.33491V12.445C0 13.3878 0.374547 14.2921 1.04124 14.9588C1.70794 15.6255 2.61218 16 3.55503 16H11.8501C12.7929 16 13.6972 15.6255 14.3639 14.9588C15.0306 14.2921 15.4051 13.3878 15.4051 12.445V5.33491C15.4051 4.39206 15.0306 3.48783 14.3639 2.82113C13.6972 2.15443 12.7929 1.77988 11.8501 1.77988V0.891127C11.8501 0.655414 11.7565 0.429355 11.5898 0.262681C11.4231 0.0960067 11.1971 0.00236999 10.9613 0.00236999C10.7256 0.00236999 10.4996 0.0960067 10.3329 0.262681C10.1662 0.429355 10.0726 0.655414 10.0726 0.891127V1.77988ZM1.77751 8.29744V12.445C1.77751 12.9164 1.96479 13.3685 2.29814 13.7019C2.63149 14.0352 3.0836 14.2225 3.55503 14.2225H11.8501C12.3215 14.2225 12.7736 14.0352 13.107 13.7019C13.4403 13.3685 13.6276 12.9164 13.6276 12.445V8.29744H1.77751Z" fill="#00202F"/>
        </symbol>

        <!-- xmark -->
        <symbol viewBox="0 0 16 16" id="xmark">
         <path d="M8 9.70342L2.03802 15.6654C1.81496 15.8885 1.53105 16 1.18631 16C0.841572 16 0.557668 15.8885 0.334601 15.6654C0.111534 15.4423 0 15.1584 0 14.8137C0 14.4689 0.111534 14.185 0.334601 13.962L6.29658 8L0.334601 2.03802C0.111534 1.81496 0 1.53105 0 1.18631C0 0.841572 0.111534 0.557668 0.334601 0.334601C0.557668 0.111534 0.841572 0 1.18631 0C1.53105 0 1.81496 0.111534 2.03802 0.334601L8 6.29658L13.962 0.334601C14.185 0.111534 14.4689 0 14.8137 0C15.1584 0 15.4423 0.111534 15.6654 0.334601C15.8885 0.557668 16 0.841572 16 1.18631C16 1.53105 15.8885 1.81496 15.6654 2.03802L9.70342 8L15.6654 13.962C15.8885 14.185 16 14.4689 16 14.8137C16 15.1584 15.8885 15.4423 15.6654 15.6654C15.4423 15.8885 15.1584 16 14.8137 16C14.4689 16 14.185 15.8885 13.962 15.6654L8 9.70342Z" fill="currentColor"/>
        </symbol>

        <!-- wheelchair -->
        <symbol viewBox="0 0 16 21" id="wheelchair">
            <path fill-rule="evenodd" clip-rule="evenodd" d="M9.51352 0C8.75232 0 8.02229 0.302387 7.48404 0.84064C6.94579 1.37889 6.6434 2.10892 6.6434 2.87012C6.6434 3.63133 6.94579 4.36135 7.48404 4.89961C8.02229 5.43786 8.75232 5.74025 9.51352 5.74025C10.2747 5.74025 11.0048 5.43786 11.543 4.89961C12.0813 4.36135 12.3836 3.63133 12.3836 2.87012C12.3836 2.10892 12.0813 1.37889 11.543 0.84064C11.0048 0.302387 10.2747 0 9.51352 0ZM9.51352 7.17531C9.89412 7.17531 10.2591 7.3265 10.5283 7.59563C10.7974 7.86475 10.9486 8.22977 10.9486 8.61037V11.4805H13.1586C13.9122 11.4805 14.6349 11.7799 15.1678 12.3127C15.7006 12.8456 16 13.5683 16 14.3219V18.6558C16 19.0364 15.8488 19.4014 15.5797 19.6705C15.3106 19.9397 14.9455 20.0909 14.5649 20.0909C14.1843 20.0909 13.8193 19.9397 13.5502 19.6705C13.2811 19.4014 13.1299 19.0364 13.1299 18.6558V14.3506H9.51352C9.13292 14.3506 8.76791 14.1994 8.49878 13.9303C8.22965 13.6612 8.07846 13.2962 8.07846 12.9156V8.61037C8.07846 8.22977 8.22965 7.86475 8.49878 7.59563C8.76791 7.3265 9.13292 7.17531 9.51352 7.17531ZM5.99762 10.2363C6.13896 10.2361 6.27888 10.2081 6.40939 10.1538C6.5399 10.0996 6.65845 10.0201 6.75826 9.92004C6.85807 9.81996 6.93719 9.70121 6.9911 9.57055C7.04502 9.4399 7.07267 9.2999 7.07248 9.15856C7.07229 9.01722 7.04427 8.8773 6.99001 8.74679C6.93574 8.61628 6.8563 8.49774 6.75623 8.39793C6.65615 8.29812 6.5374 8.219 6.40674 8.16508C6.27609 8.11117 6.13609 8.08351 5.99475 8.0837C4.98387 8.08483 3.98965 8.34128 3.10435 8.82927C2.21905 9.31725 1.47135 10.021 0.930652 10.8751C0.389951 11.7292 0.0737608 12.7061 0.0114231 13.715C-0.0509146 14.724 0.14262 15.7324 0.574068 16.6465C1.00552 17.5607 1.6609 18.3511 2.47939 18.9444C3.29789 19.5376 4.25298 19.9145 5.25604 20.0401C6.2591 20.1656 7.27762 20.0358 8.21709 19.6626C9.15656 19.2894 9.98653 18.6849 10.63 17.9053C10.8037 17.6843 10.884 17.4041 10.8538 17.1246C10.8237 16.8452 10.6854 16.5886 10.4685 16.4098C10.2516 16.231 9.9734 16.1441 9.69331 16.1677C9.41322 16.1913 9.15348 16.3236 8.96963 16.5362C8.42108 17.1997 7.66606 17.6603 6.8251 17.8444C5.98414 18.0286 5.10573 17.9257 4.33008 17.5522C3.54501 17.1738 2.91161 16.5402 2.53349 15.755C2.15538 14.9698 2.05494 14.0795 2.24862 13.2298C2.4423 12.3801 2.91862 11.6213 3.59965 11.0775C4.28069 10.5337 5.12612 10.2371 5.99762 10.2363Z" fill="currentColor"/>
        </symbol>

        <!-- finish -->
        <symbol viewBox="0 0 17 16" id="finish">
            <path d="M0.340802 1.45195C0.233276 1.53905 0.147157 1.64683 0.0883378 1.76792C0.0295187 1.889 -0.000611425 2.02053 9.4025e-06 2.15351V15.0769C9.4025e-06 15.3217 0.104081 15.5565 0.289331 15.7296C0.47458 15.9027 0.725832 16 0.987814 16C1.2498 16 1.50105 15.9027 1.6863 15.7296C1.87155 15.5565 1.97562 15.3217 1.97562 15.0769V11.8245C3.85574 10.5076 5.44116 11.123 7.79379 12.2091C9.12979 12.8245 10.6535 13.5322 12.3048 13.5322C13.5165 13.5322 14.7973 13.1522 16.1226 12.0799C16.2293 11.9935 16.3149 11.8867 16.3737 11.7667C16.4325 11.6468 16.4631 11.5164 16.4634 11.3845V2.15351C16.4635 1.97651 16.409 1.80324 16.3067 1.65434C16.2043 1.50543 16.0583 1.38717 15.886 1.31364C15.7137 1.24011 15.5224 1.21442 15.3349 1.23963C15.1475 1.26483 14.9717 1.33987 14.8286 1.4558C12.7945 3.10276 11.163 2.47967 8.66964 1.32656C6.35406 0.251153 3.47132 -1.08196 0.340802 1.45195ZM14.4878 10.943C12.6077 12.2607 11.0223 11.6437 8.66964 10.5583C6.76318 9.67369 4.47229 8.6152 1.97562 9.68215V2.59121C3.85574 1.27425 5.44116 1.88965 7.79379 2.97584C9.12979 3.59123 10.6535 4.29894 12.3048 4.29894C13.0585 4.3 13.8035 4.14748 14.4878 3.85201V10.943Z" fill="currentColor"/>
        </symbol>

        <!-- pin -->
        <symbol viewBox="0 0 44 44" id="pin">
            <g filter="url(#filter0_d_910_2045)">
            <circle cx="22" cy="22" r="16" fill="white"/>
            <circle cx="22" cy="22" r="15" stroke="url(#paint0_linear_910_2045)" stroke-width="2"/>
            </g>
            <path fill-rule="evenodd" clip-rule="evenodd" d="M18.3859 13.6797C17.8882 13.6799 17.3994 13.8168 16.969 14.0767C16.5386 14.3366 16.1819 14.7102 15.9351 15.1597L14.0593 18.5738H12.9647C12.8649 18.5738 12.7691 18.6151 12.6985 18.6885C12.6279 18.7619 12.5882 18.8615 12.5882 18.9653V19.4303C12.5881 19.6051 12.6441 19.7749 12.7475 19.9127C12.8508 20.0505 12.9955 20.1484 13.1586 20.1908L13.1812 20.1957C12.7882 21.044 12.6388 21.9923 12.7511 22.9266L13.4334 28.6048C13.4903 29.0783 13.7116 29.514 14.0556 29.8298C14.3997 30.1456 14.8428 30.3198 15.3017 30.3197H15.4118C15.911 30.3197 16.3898 30.1134 16.7428 29.7463C17.0958 29.3792 17.2941 28.8812 17.2941 28.362H26.7059C26.7059 28.8812 26.9042 29.3792 27.2572 29.7463C27.6102 30.1134 28.089 30.3197 28.5882 30.3197H28.6984C29.1572 30.3198 29.6003 30.1456 29.9444 29.8298C30.2884 29.514 30.5097 29.0783 30.5666 28.6048L31.2489 22.9276C31.3612 21.9932 31.2118 21.045 30.8188 20.1967L30.8414 20.1908C31.0045 20.1484 31.1492 20.0505 31.2525 19.9127C31.3559 19.7749 31.412 19.6051 31.4118 19.4303V18.9653C31.4118 18.8615 31.3721 18.7619 31.3015 18.6885C31.2309 18.6151 31.1351 18.5738 31.0353 18.5738H29.9407L28.0649 15.1597C27.8181 14.7102 27.4614 14.3366 27.031 14.0767C26.6006 13.8168 26.1118 13.6799 25.6141 13.6797H18.3859ZM28.0442 19.0671L26.4311 16.1307C26.3487 15.9807 26.2297 15.8561 26.086 15.7694C25.9424 15.6828 25.7792 15.6372 25.6132 15.6373H18.3868C18.2208 15.6372 18.0576 15.6828 17.914 15.7694C17.7704 15.8561 17.6513 15.9807 17.5689 16.1307L15.9558 19.0671C15.874 19.216 15.8313 19.3845 15.8318 19.5559C15.8324 19.7273 15.8762 19.8956 15.9589 20.0439C16.0417 20.1921 16.1604 20.3152 16.3032 20.4008C16.446 20.4863 16.6079 20.5314 16.7727 20.5315H27.2273C27.3921 20.5314 27.554 20.4863 27.6968 20.4008C27.8397 20.3152 27.9584 20.1921 28.0411 20.0439C28.1238 19.8956 28.1676 19.7273 28.1682 19.5559C28.1687 19.3845 28.126 19.216 28.0442 19.0671ZM15.4118 24.4849V23.7997C15.4117 23.715 15.4329 23.6316 15.4731 23.5579C15.5134 23.4841 15.5713 23.4225 15.6414 23.3791C15.7114 23.3357 15.7911 23.3119 15.8726 23.3102C15.9541 23.3084 16.0347 23.3287 16.1064 23.3691L18.6871 24.8177C19.0381 25.0154 18.8922 25.5704 18.4932 25.5538L16.3153 25.4628C16.0726 25.4527 15.843 25.3454 15.6746 25.1633C15.5063 24.9812 15.4121 24.7385 15.4118 24.4859M28.5882 23.8007V24.4859C28.5884 24.7389 28.4945 24.9821 28.326 25.1645C28.1576 25.347 27.9277 25.4546 27.6847 25.4647L25.5068 25.5548C25.1078 25.5714 24.9609 25.0164 25.3129 24.8187L27.8937 23.37C27.9654 23.3297 28.0459 23.3094 28.1274 23.3111C28.2089 23.3129 28.2886 23.3367 28.3586 23.3801C28.4287 23.4235 28.4866 23.4851 28.5269 23.5588C28.5671 23.6326 28.5883 23.7159 28.5882 23.8007Z" fill="url(#paint1_linear_910_2045)"/>
            <defs>
            <filter id="filter0_d_910_2045" x="0" y="0" width="44" height="44" filterUnits="userSpaceOnUse" color-interpolation-filters="sRGB">
            <feFlood flood-opacity="0" result="BackgroundImageFix"/>
            <feColorMatrix in="SourceAlpha" type="matrix" values="0 0 0 0 0 0 0 0 0 0 0 0 0 0 0 0 0 0 127 0" result="hardAlpha"/>
            <feOffset/>
            <feGaussianBlur stdDeviation="3"/>
            <feComposite in2="hardAlpha" operator="out"/>
            <feColorMatrix type="matrix" values="0 0 0 0 0 0 0 0 0 0 0 0 0 0 0 0 0 0 0.25 0"/>
            <feBlend mode="normal" in2="BackgroundImageFix" result="effect1_dropShadow_910_2045"/>
            <feBlend mode="normal" in="SourceGraphic" in2="effect1_dropShadow_910_2045" result="shape"/>
            </filter>
            <linearGradient id="paint0_linear_910_2045" x1="6" y1="38" x2="42.1348" y2="32.3242" gradientUnits="userSpaceOnUse">
            <stop stop-color="#ED6A01"/>
            <stop offset="1" stop-color="#FFCC00"/>
            </linearGradient>
            <linearGradient id="paint1_linear_910_2045" x1="12.5882" y1="30.3197" x2="33.7019" y2="26.5681" gradientUnits="userSpaceOnUse">
            <stop stop-color="#ED6A01"/>
            <stop offset="1" stop-color="#FFCC00"/>
            </linearGradient>
            </defs>
        </symbol>
        
    </defs>
</svg>
