<svg xmlns="http://www.w3.org/2000/svg">
    <defs>
        <!-- home -->
        <symbol viewBox="0 0 26 27" id="home">
            <path
                fill="white"
                stroke="currentColor"
                stroke-width="2px"
                stroke-linejoin="round"
                border="#ed6a01"
                d="M25 12.604V23.699C25 24.2082 24.7893 24.6966 24.4142 25.0567C24.0391 25.4168 23.5304 25.6191 23 25.6191H18C17.4695 25.6191 16.9608 25.4168 16.5858 25.0567C16.2107 24.6966 16 24.2082 16 23.699V18.8986C16 18.6439 15.8946 18.3997 15.7071 18.2197C15.5196 18.0396 15.2652 17.9385 15 17.9385H11C10.7348 17.9385 10.4804 18.0396 10.2929 18.2197C10.1053 18.3997 9.99999 18.6439 9.99999 18.8986V23.699C9.99999 24.2082 9.78928 24.6966 9.4142 25.0567C9.03913 25.4168 8.53042 25.6191 7.99999 25.6191H3C2.46957 25.6191 1.96086 25.4168 1.58579 25.0567C1.21071 24.6966 1 24.2082 1 23.699V12.604C0.999958 12.3383 1.05737 12.0754 1.16861 11.8321C1.27985 11.5887 1.4425 11.3702 1.64625 11.1903L11.6462 2.13194L11.66 2.11874C12.0282 1.79727 12.5079 1.61914 13.0056 1.61914C13.5033 1.61914 13.9831 1.79727 14.3512 2.11874C14.3555 2.12344 14.3601 2.12785 14.365 2.13194L24.365 11.1903C24.5667 11.3711 24.7272 11.5901 24.8365 11.8334C24.9458 12.0767 25.0014 12.3391 25 12.604Z"
            />
        </symbol>

        <!-- home_solid-->
        <symbol viewBox="0 0 26 27" id="home_solid">
            <path
                fill="currentColor"
                d="M25 12.604V23.699C25 24.2082 24.7893 24.6966 24.4142 25.0567C24.0391 25.4168 23.5304 25.6191 23 25.6191H18C17.4695 25.6191 16.9608 25.4168 16.5858 25.0567C16.2107 24.6966 16 24.2082 16 23.699V18.8986C16 18.6439 15.8946 18.3997 15.7071 18.2197C15.5196 18.0396 15.2652 17.9385 15 17.9385H11C10.7348 17.9385 10.4804 18.0396 10.2929 18.2197C10.1053 18.3997 9.99999 18.6439 9.99999 18.8986V23.699C9.99999 24.2082 9.78928 24.6966 9.4142 25.0567C9.03913 25.4168 8.53042 25.6191 7.99999 25.6191H3C2.46957 25.6191 1.96086 25.4168 1.58579 25.0567C1.21071 24.6966 1 24.2082 1 23.699V12.604C0.999958 12.3383 1.05737 12.0754 1.16861 11.8321C1.27985 11.5887 1.4425 11.3702 1.64625 11.1903L11.6462 2.13194L11.66 2.11874C12.0282 1.79727 12.5079 1.61914 13.0056 1.61914C13.5033 1.61914 13.9831 1.79727 14.3512 2.11874C14.3555 2.12344 14.3601 2.12785 14.365 2.13194L24.365 11.1903C24.5667 11.3711 24.7272 11.5901 24.8365 11.8334C24.9458 12.0767 25.0014 12.3391 25 12.604Z"
            />
        </symbol>

        <!-- passengers-->
        <symbol viewBox="0 0 26 19" id="passengers">
            <path
                fill="white"
                stroke="currentColor"
                stroke-width="2px"
                stroke-linejoin="round"
                border="#ed6a01"
                d="M16.9999 9.22655C15.9719 9.22655 14.9779 8.79746 14.1999 8.01875C13.4434 7.25919 12.9814 6.2463 12.8999 5.1675C12.8129 4.01671 13.1884 2.95848 13.9569 2.18724C14.7254 1.416 15.7999 1 16.9999 1C18.1914 1 19.2688 1.42348 20.0348 2.19285C20.8083 2.9697 21.1848 4.02606 21.0978 5.16703C21.0143 6.24723 20.5528 7.25966 19.7978 8.01828C19.0218 8.79746 18.0284 9.22655 16.9999 9.22655ZM23.5913 17.4531H10.4089C10.197 17.4542 9.98757 17.4098 9.79687 17.3233C9.60617 17.2368 9.43923 17.1106 9.3089 16.9544C9.17065 16.785 9.07518 16.5886 9.02964 16.3798C8.98409 16.1711 8.98965 15.9554 9.0459 15.7489C9.4669 14.1686 10.5099 12.8579 12.0619 11.9591C13.4394 11.1617 15.1929 10.7223 16.9999 10.7223C18.8424 10.7223 20.5498 11.143 21.9353 11.9399C23.4908 12.8341 24.5353 14.1522 24.9543 15.7517C25.0099 15.9583 25.0148 16.174 24.9688 16.3827C24.9227 16.5913 24.8268 16.7875 24.6883 16.9567C24.5581 17.1122 24.3916 17.2378 24.2014 17.3239C24.0113 17.4099 23.8026 17.4541 23.5913 17.4531ZM7.54991 9.41352C5.79042 9.41352 4.24343 7.88413 4.09993 6.00464C4.02893 5.04176 4.34993 4.15133 4.99992 3.49835C5.64292 2.85191 6.54991 2.49574 7.54991 2.49574C8.5499 2.49574 9.4499 2.85378 10.0964 3.50396C10.7514 4.16208 11.0714 5.05064 10.9964 6.00558C10.8529 7.8846 9.3064 9.41352 7.54991 9.41352ZM10.8329 10.8835C9.9534 10.4816 8.8119 10.2806 7.55041 10.2806C6.07742 10.2806 4.64692 10.6396 3.52193 11.2911C2.24644 12.0311 1.38844 13.1085 1.04194 14.4093C0.991236 14.5964 0.98644 14.7918 1.02791 14.9809C1.06939 15.17 1.15606 15.3478 1.28144 15.5012C1.40041 15.6439 1.55283 15.7593 1.72697 15.8384C1.90111 15.9175 2.09234 15.9582 2.28594 15.9574H7.83591C7.92958 15.9574 8.02028 15.9266 8.09219 15.8705C8.1641 15.8144 8.21266 15.7364 8.2294 15.6503C8.2349 15.6208 8.24191 15.5914 8.24991 15.5624C8.6739 13.9704 9.6674 12.6251 11.1354 11.6445C11.1894 11.6081 11.2328 11.5597 11.2617 11.5037C11.2907 11.4476 11.3042 11.3857 11.301 11.3236C11.2979 11.2614 11.2783 11.201 11.2438 11.1477C11.2094 11.0945 11.1613 11.0501 11.1039 11.0186C11.0254 10.9756 10.9354 10.9303 10.8329 10.8835Z"
            />
        </symbol>

        <!-- passengers_solid-->
        <symbol viewBox="0 0 26 19" id="passengers_solid">
            <path
                fill="currentColor"
                d="M16.9999 9.22655C15.9719 9.22655 14.9779 8.79746 14.1999 8.01875C13.4434 7.25919 12.9814 6.2463 12.8999 5.1675C12.8129 4.01671 13.1884 2.95848 13.9569 2.18724C14.7254 1.416 15.7999 1 16.9999 1C18.1914 1 19.2688 1.42348 20.0348 2.19285C20.8083 2.9697 21.1848 4.02606 21.0978 5.16703C21.0143 6.24723 20.5528 7.25966 19.7978 8.01828C19.0218 8.79746 18.0284 9.22655 16.9999 9.22655ZM23.5913 17.4531H10.4089C10.1969 17.4542 9.98757 17.4098 9.79687 17.3233C9.60617 17.2368 9.43923 17.1106 9.3089 16.9544C9.17065 16.785 9.07518 16.5886 9.02964 16.3798C8.98409 16.1711 8.98965 15.9554 9.0459 15.7489C9.4669 14.1686 10.5099 12.8579 12.0619 11.9591C13.4394 11.1617 15.1929 10.7223 16.9999 10.7223C18.8424 10.7223 20.5498 11.143 21.9353 11.9399C23.4908 12.8341 24.5353 14.1522 24.9543 15.7517C25.0099 15.9583 25.0148 16.174 24.9688 16.3827C24.9227 16.5913 24.8268 16.7875 24.6883 16.9567C24.5581 17.1122 24.3916 17.2378 24.2014 17.3239C24.0113 17.4099 23.8026 17.4541 23.5913 17.4531ZM7.54991 9.41352C5.79042 9.41352 4.24343 7.88413 4.09993 6.00464C4.02893 5.04176 4.34993 4.15133 4.99992 3.49835C5.64292 2.85191 6.54991 2.49574 7.54991 2.49574C8.5499 2.49574 9.4499 2.85378 10.0964 3.50396C10.7514 4.16208 11.0714 5.05064 10.9964 6.00558C10.8529 7.8846 9.3064 9.41352 7.54991 9.41352ZM10.8329 10.8835C9.9534 10.4816 8.8119 10.2806 7.55041 10.2806C6.07742 10.2806 4.64692 10.6396 3.52193 11.2911C2.24644 12.0311 1.38844 13.1085 1.04194 14.4093C0.991236 14.5964 0.98644 14.7918 1.02791 14.9809C1.06939 15.17 1.15606 15.3478 1.28144 15.5012C1.40041 15.644 1.55283 15.7593 1.72697 15.8384C1.90111 15.9175 2.09234 15.9582 2.28594 15.9574H7.83591C7.92958 15.9574 8.02028 15.9266 8.09219 15.8705C8.1641 15.8144 8.21266 15.7364 8.2294 15.6503C8.2349 15.6208 8.24191 15.5914 8.24991 15.5624C8.6739 13.9704 9.6674 12.6251 11.1354 11.6445C11.1894 11.6081 11.2328 11.5597 11.2617 11.5037C11.2907 11.4476 11.3042 11.3857 11.301 11.3236C11.2979 11.2614 11.2783 11.201 11.2438 11.1477C11.2094 11.0945 11.1613 11.0501 11.1039 11.0186C11.0254 10.9756 10.9354 10.9303 10.8329 10.8835Z"
            />
        </symbol>

        <!-- rides-->
        <symbol viewBox="0 0 26 32" id="rides">
            <path
                fill="white"
                stroke="currentColor"
                stroke-width="2.5px"
                stroke-linejoin="round"
                border="#ed6a01"
                d="M25 13C25 22.3333 13 30.3333 13 30.3333C13 30.3333 1 22.3333 1 13C1 9.8174 2.26428 6.76516 4.51472 4.51472C6.76516 2.26428 9.8174 1 13 1C16.1826 1 19.2348 2.26428 21.4853 4.51472C23.7357 6.76516 25 9.8174 25 13Z"
            />
            <path
                fill="white"
                stroke="currentColor"
                stroke-width="2.5px"
                stroke-linejoin="round"
                border="#ed6a01"
                d="M13 16.999C15.2091 16.999 17 15.2082 17 12.999C17 10.7899 15.2091 8.99902 13 8.99902C10.7909 8.99902 9 10.7899 9 12.999C9 15.2082 10.7909 16.999 13 16.999Z"
            />
        </symbol>

        <!-- rides_solid-->
        <symbol viewBox="0 0 26 32" id="rides_solid">
            <path
                fill="currentColor"
                d="M25 13C25 22.3333 13 30.3333 13 30.3333C13 30.3333 1 22.3333 1 13C1 9.8174 2.26428 6.76516 4.51472 4.51472C6.76516 2.26428 9.8174 1 13 1C16.1826 1 19.2348 2.26428 21.4853 4.51472C23.7357 6.76516 25 9.8174 25 13Z"
            />
            <path
                fill="currentColor"
                d="M13 16.999C15.2091 16.999 17 15.2082 17 12.999C17 10.7899 15.2091 8.99902 13 8.99902C10.7909 8.99902 9 10.7899 9 12.999C9 15.2082 10.7909 16.999 13 16.999Z"
            />
        </symbol>

        <!-- chat-->
        <symbol viewBox="0 0 24 23" id="chat">
            <path
                fill="white"
                stroke="currentColor"
                stroke-width="2px"
                stroke-linejoin="round"
                border="#ed6a01"
                d="M12.0504 15.696H11.7201L11.4548 15.8928L3.72198 21.6267C3.69223 21.6487 3.65626 21.6625 3.61805 21.6659C3.57982 21.6692 3.54165 21.6619 3.50798 21.6451C3.47435 21.6283 3.44697 21.6029 3.42823 21.5727C3.40952 21.5425 3.39995 21.5083 3.4 21.4738V21.4723V16.6948V15.6948H2.4C2.0267 15.6948 1.66993 15.5474 1.40785 15.287C1.14598 15.0267 1 14.675 1 14.3097V3.57653C1 2.89489 1.27241 2.2399 1.75932 1.756C2.24585 1.27248 2.90759 1 3.6 1H20.4C21.0916 1 21.7536 1.27308 22.2407 1.75719C22.7276 2.24109 23 2.89608 23 3.57772V13.1183C23 13.8 22.7276 14.4549 22.2407 14.9388C21.7536 15.423 21.0916 15.696 20.4 15.696H12.0504Z"
            />
        </symbol>

        <!-- chat_solid-->
        <symbol viewBox="0 0 24 23" id="chat_solid">
            <path
                fill="currentColor"
                d="M12.0504 15.696H11.7201L11.4548 15.8928L3.72198 21.6267C3.69223 21.6487 3.65626 21.6625 3.61805 21.6659C3.57982 21.6692 3.54165 21.6619 3.50798 21.6451C3.47435 21.6283 3.44697 21.6029 3.42823 21.5727C3.40952 21.5425 3.39995 21.5083 3.4 21.4738V21.4723V16.6948V15.6948H2.4C2.0267 15.6948 1.66993 15.5474 1.40785 15.287C1.14598 15.0267 1 14.675 1 14.3097V3.57653C1 2.89489 1.27241 2.2399 1.75932 1.756C2.24585 1.27248 2.90759 1 3.6 1H20.4C21.0916 1 21.7536 1.27308 22.2407 1.75719C22.7276 2.24109 23 2.89608 23 3.57772V13.1183C23 13.8 22.7276 14.4549 22.2407 14.9388C21.7536 15.423 21.0916 15.696 20.4 15.696H12.0504Z"
            />
        </symbol>

        <!-- settings-->
        <symbol viewBox="0 0 24 25" id="settings">
            <path
                fill="white"
                stroke="currentColor"
                stroke-width="2px"
                stroke-linejoin="round"
                border="#ed6a01"
                d="M9.30314 1.29682L9.30193 1.29924L8.78956 3.60537L8.68376 4.08155L8.24337 4.29131C7.80201 4.50152 7.38232 4.74408 6.98707 5.01862L6.58412 5.29851L6.11616 5.15111L3.7433 4.40369C3.69447 4.38833 3.64186 4.39009 3.59414 4.40867C3.54643 4.42725 3.50643 4.46157 3.48078 4.506L3.48075 4.50606L1.03027 8.75116L1.03023 8.75123C1.00457 8.79567 0.994822 8.84757 1.00262 8.89833C1.01039 8.94895 1.03514 8.99538 1.07274 9.03001C1.07276 9.03003 1.07278 9.03005 1.0728 9.03007C1.07289 9.03015 1.07297 9.03023 1.07306 9.03031L2.90692 10.7114L3.26764 11.042L3.22788 11.5298C3.18854 12.0124 3.18854 12.4974 3.22788 12.98L3.26762 13.4675L2.90719 13.7982L1.07306 15.4807C1.07304 15.4807 1.07302 15.4808 1.07301 15.4808C1.03525 15.5154 1.01041 15.562 1.00262 15.6127C0.994822 15.6635 1.00457 15.7154 1.03023 15.7598L1.03027 15.7599L3.48075 20.005L3.48078 20.005C3.50643 20.0495 3.54642 20.0838 3.59414 20.1024C3.64186 20.1209 3.69447 20.1227 3.74331 20.1073L6.11753 19.3599L6.58619 19.2123L6.98937 19.4932C7.38263 19.7671 7.80163 20.0093 8.24372 20.2193L8.68492 20.4289L8.79081 20.9058L9.32988 23.3333C9.32989 23.3333 9.3299 23.3334 9.32992 23.3335C9.34108 23.3835 9.36894 23.4282 9.40887 23.4603C9.4488 23.4923 9.49841 23.5098 9.54953 23.5098C9.54958 23.5098 9.54964 23.5098 9.5497 23.5098H14.4505H14.4511C14.5023 23.5098 14.5521 23.4924 14.5921 23.4602L15.218 24.2401L14.5921 23.4602C14.6321 23.4281 14.66 23.3833 14.6711 23.3331L14.6713 23.3321L15.2104 20.9057L15.3162 20.4295L15.7566 20.2197C16.198 20.0095 16.6177 19.7669 17.0129 19.4924L17.4159 19.2125L17.8838 19.3599L20.2567 20.1073C20.3055 20.1227 20.3581 20.1209 20.4059 20.1024C20.4536 20.0838 20.4936 20.0495 20.5192 20.005L20.5193 20.005L22.9697 15.7599L22.9698 15.7598C22.9954 15.7154 23.0052 15.6635 22.9974 15.6127C22.9896 15.5619 22.9647 15.5154 22.9269 15.4807L21.0928 13.7982L20.7324 13.4675L20.7721 12.9801C20.8114 12.4974 20.8114 12.0124 20.7721 11.5297L20.7324 11.0423L21.0928 10.7116L22.9269 9.02908C22.9647 8.99441 22.9896 8.94787 22.9974 8.89711C23.0052 8.84634 22.9954 8.79445 22.9698 8.75L22.9697 8.74993L20.5193 4.50484L20.5192 4.50478C20.4936 4.46035 20.4536 4.42603 20.4059 4.40744C20.3582 4.3889 20.3057 4.38711 20.257 4.40238C20.2569 4.40239 20.2569 4.40241 20.2568 4.40243C20.2568 4.40244 20.2567 4.40245 20.2567 4.40247L17.8825 5.14992L17.4138 5.29747L17.0106 5.01665C16.6174 4.74273 16.1984 4.50053 15.7563 4.2905L15.3151 4.08088L15.2092 3.60404L14.6701 1.17652C14.6701 1.17647 14.6701 1.17642 14.6701 1.17637C14.6701 1.17636 14.6701 1.17635 14.6701 1.17634C14.6589 1.12629 14.6311 1.08158 14.5911 1.04954C14.5512 1.01751 14.5016 1.00005 14.4505 1L9.30314 1.29682ZM9.30314 1.29682L9.32988 1.17651M9.30314 1.29682L9.32988 1.17651M9.32988 1.17651C9.34101 1.1264 9.3689 1.08162 9.40887 1.04954M9.32988 1.17651L9.40887 1.04954M9.40887 1.04954C9.44879 1.01751 9.4984 1.00005 9.54953 1M9.40887 1.04954L9.54953 1M9.54953 1C9.54958 1 9.54964 1 9.5497 1M9.54953 1H9.5497M9.5497 1H14.4503H9.5497ZM12 16.9314C13.2401 16.9314 14.4295 16.4386 15.3063 15.5616C16.1831 14.6846 16.6757 13.4951 16.6757 12.2549C16.6757 11.0147 16.1831 9.82523 15.3063 8.94821C14.4295 8.07118 13.2401 7.57843 12 7.57843C10.7599 7.57843 9.57055 8.07118 8.6937 8.94821C7.81686 9.82523 7.32429 11.0147 7.32429 12.2549C7.32429 13.4951 7.81686 14.6846 8.6937 15.5616C9.57055 16.4386 10.7599 16.9314 12 16.9314Z"
            />
        </symbol>

        <!-- settings_solid-->
        <symbol viewBox="0 0 24 25" id="settings_solid">
            <path
                fill="currentColor"
                d="M9.30314 1.29682L9.30193 1.29924L8.78956 3.60537L8.68376 4.08155L8.24337 4.29131C7.80201 4.50152 7.38232 4.74408 6.98707 5.01862L6.58412 5.29851L6.11616 5.15111L3.7433 4.40369C3.69447 4.38833 3.64186 4.39009 3.59414 4.40867C3.54643 4.42725 3.50643 4.46157 3.48078 4.506L3.48075 4.50606L1.03027 8.75116L1.03023 8.75123C1.00457 8.79567 0.994822 8.84757 1.00262 8.89833C1.01039 8.94895 1.03514 8.99538 1.07274 9.03001C1.07276 9.03003 1.07278 9.03005 1.0728 9.03007C1.07289 9.03015 1.07297 9.03023 1.07306 9.03031L2.90692 10.7114L3.26764 11.042L3.22788 11.5298C3.18854 12.0124 3.18854 12.4974 3.22788 12.98L3.26762 13.4675L2.90719 13.7982L1.07306 15.4807C1.07304 15.4807 1.07302 15.4808 1.07301 15.4808C1.03525 15.5154 1.01041 15.562 1.00262 15.6127C0.994822 15.6635 1.00457 15.7154 1.03023 15.7598L1.03027 15.7599L3.48075 20.005L3.48078 20.005C3.50643 20.0495 3.54642 20.0838 3.59414 20.1024C3.64186 20.1209 3.69447 20.1227 3.74331 20.1073L6.11753 19.3599L6.58619 19.2123L6.98937 19.4932C7.38263 19.7671 7.80163 20.0093 8.24372 20.2193L8.68492 20.4289L8.79081 20.9058L9.32988 23.3333C9.32989 23.3333 9.3299 23.3334 9.32992 23.3335C9.34108 23.3835 9.36894 23.4282 9.40887 23.4603C9.4488 23.4923 9.49841 23.5098 9.54953 23.5098C9.54958 23.5098 9.54964 23.5098 9.5497 23.5098H14.4505H14.4511C14.5023 23.5098 14.5521 23.4924 14.5921 23.4602L15.218 24.2401L14.5921 23.4602C14.6321 23.4281 14.66 23.3833 14.6711 23.3331L14.6713 23.3321L15.2104 20.9057L15.3162 20.4295L15.7566 20.2197C16.198 20.0095 16.6177 19.7669 17.0129 19.4924L17.4159 19.2125L17.8838 19.3599L20.2567 20.1073C20.3055 20.1227 20.3581 20.1209 20.4059 20.1024C20.4536 20.0838 20.4936 20.0495 20.5192 20.005L20.5193 20.005L22.9697 15.7599L22.9698 15.7598C22.9954 15.7154 23.0052 15.6635 22.9974 15.6127C22.9896 15.5619 22.9647 15.5154 22.9269 15.4807L21.0928 13.7982L20.7324 13.4675L20.7721 12.9801C20.8114 12.4974 20.8114 12.0124 20.7721 11.5297L20.7324 11.0423L21.0928 10.7116L22.9269 9.02908C22.9647 8.99441 22.9896 8.94787 22.9974 8.89711C23.0052 8.84634 22.9954 8.79445 22.9698 8.75L22.9697 8.74993L20.5193 4.50484L20.5192 4.50478C20.4936 4.46035 20.4536 4.42603 20.4059 4.40744C20.3582 4.3889 20.3057 4.38711 20.257 4.40238C20.2569 4.40239 20.2569 4.40241 20.2568 4.40243C20.2568 4.40244 20.2567 4.40245 20.2567 4.40247L17.8825 5.14992L17.4138 5.29747L17.0106 5.01665C16.6174 4.74273 16.1984 4.50053 15.7563 4.2905L15.3151 4.08088L15.2092 3.60404L14.6701 1.17652C14.6701 1.17647 14.6701 1.17642 14.6701 1.17637C14.6701 1.17636 14.6701 1.17635 14.6701 1.17634C14.6589 1.12629 14.6311 1.08158 14.5911 1.04954C14.5512 1.01751 14.5016 1.00005 14.4505 1L9.30314 1.29682ZM9.30314 1.29682L9.32988 1.17651M9.30314 1.29682L9.32988 1.17651M9.32988 1.17651C9.34101 1.1264 9.3689 1.08162 9.40887 1.04954M9.32988 1.17651L9.40887 1.04954M9.40887 1.04954C9.44879 1.01751 9.4984 1.00005 9.54953 1M9.40887 1.04954L9.54953 1M9.54953 1C9.54958 1 9.54964 1 9.5497 1M9.54953 1H9.5497M9.5497 1H14.4503H9.5497ZM12 16.9314C13.2401 16.9314 14.4295 16.4386 15.3063 15.5616C16.1831 14.6846 16.6757 13.4951 16.6757 12.2549C16.6757 11.0147 16.1831 9.82523 15.3063 8.94821C14.4295 8.07118 13.2401 7.57843 12 7.57843C10.7599 7.57843 9.57055 8.07118 8.6937 8.94821C7.81686 9.82523 7.32429 11.0147 7.32429 12.2549C7.32429 13.4951 7.81686 14.6846 8.6937 15.5616C9.57055 16.4386 10.7599 16.9314 12 16.9314Z"
            />
        </symbol>

        <!-- logout -->
        <symbol viewBox="0 0 26 24" id="logout">
            <path
                fill="white"
                d="M9 22.9375L3.66668 22.9375C2.95943 22.9375 2.28116 22.6807 1.78106 22.2236C1.28097 21.7665 1.00001 21.1465 1.00001 20.5L1.00002 3.4375C1.00002 2.79103 1.28097 2.17104 1.78107 1.71392C2.28116 1.2568 2.95944 0.999996 3.66668 0.999996L9.00001 0.999998"
                stroke="#ED6A01"
                stroke-width="2"
                stroke-linecap="round"
                stroke-linejoin="round"
            />
            <path
                fill="white"
                d="M15.667 5.87505L9.00033 11.9688L15.667 18.0625"
                stroke="#ED6A01"
                stroke-width="2"
                stroke-linecap="round"
                stroke-linejoin="round"
            />
            <path
                fill="white"
                d="M9.00002 11.9687L25 11.9688"
                stroke="#ED6A01"
                stroke-width="2"
                stroke-linecap="round"
                stroke-linejoin="round"
            />
        </symbol>
    </defs>
</svg>
